<?xml version="1.0" encoding="utf-8" ?><svg xmlns="http://www.w3.org/2000/svg" xmlns:xlink="http://www.w3.org/1999/xlink" width="427" height="689" viewBox="0 0 427 689"><clipPath id="cl_3"><rect x="0.00034141541" y="0.00015258789" width="427" height="689"/></clipPath><g clip-path="url(#cl_3)"><path transform="matrix(0.968254 0 0 0.969058 -18.3965 -151.173)" d="M238.35 181.233C240.806 182.183 242.339 185.204 243.671 187.332C248.153 194.489 251.955 202.031 256.227 209.309L284.301 256.262L417.668 476.717C399.524 495.411 379.044 511.703 359.664 529.093L239.164 636.796C228.787 632.246 201.903 604.624 191.243 594.984C176.773 581.901 162.244 568.797 147.111 556.483C154.079 546.226 162.352 535.5 171.336 526.945C185.865 538.527 199.177 551.444 212.756 564.106C221.127 571.912 229.48 580.147 238.959 586.618C248.639 576.976 259.115 568.118 269.289 559.002C286.327 543.634 303.487 528.399 320.764 513.299C302.718 491.817 284.814 470.215 267.053 448.496C257.654 436.992 248.589 425.009 238.744 413.9C229.555 422.049 222.071 432.575 214.417 442.136C204.999 453.807 195.519 465.428 185.976 476.997L132.148 542.004C117.044 560.078 101.689 577.974 87.2983 596.628C98.2104 604.535 110.042 611.526 121.292 618.971C137.953 629.996 154.318 641.441 170.823 652.696C193.195 667.953 214.86 685.679 238.78 698.417C250.159 691.896 260.883 683.17 271.856 675.859C300.308 657.155 328.518 638.084 356.477 618.651C367.52 611.417 378.52 604.117 389.477 596.753C382.777 588.976 361.497 567.118 360.38 558.061C362.125 551.015 379.812 538.018 385.966 533.277C390.923 538.436 442.786 600.614 443.948 604.04C434.985 615.019 410.946 627.723 398.553 636.004L309.357 696.377C291.772 708.197 273.363 718.841 256.922 732.277C255.543 755.277 256.3 779.227 256.929 802.274C272.811 801.833 288.855 802.57 304.76 802.51C320.201 802.452 336.039 801.477 351.433 802.574C351.518 814.889 351.508 827.205 351.401 839.52C330.505 841.127 309.13 839.826 288.186 839.767L192.675 839.759C170.223 839.71 147.795 839.158 125.354 840.098C124.788 827.595 125.036 814.918 125.345 802.409C132.614 801.864 140.018 802.166 147.307 802.186L192.293 802.248C201.311 802.253 210.477 802.607 219.469 801.871C219.068 792.805 219.514 783.681 219.579 774.608C219.707 760.252 219.56 745.896 219.139 731.546C196.812 715.311 173.621 700.257 150.683 684.905L76.942 634.932C62.5845 625.202 43.4456 616.093 31.7079 603.55L75.145 551.78C84.897 540.25 95.3763 529.349 103.314 516.423C87.7374 504.078 72.9154 490.81 58.9279 476.69C76.5327 449.517 92.582 421.4 109.27 393.664L189.186 261.436C198.322 246.32 207.381 231.158 216.362 215.95C223.244 204.239 229.552 191.639 238.35 181.233ZM107.573 469.855C114.208 475.868 120.824 482.417 127.973 487.799C152.566 458.82 176.585 429.241 200.629 399.802C210.371 387.875 227.251 363.213 238.613 355.215C249.479 365.154 258.436 378.269 267.708 389.695L321.314 454.771C329.968 465.276 339.228 478.216 348.556 487.792C355.984 482.636 362.394 475.622 369.3 469.754C353.877 445.005 242.393 256.792 238.505 254.489C222.869 273.21 206.935 305.216 193.664 327.064C170.654 364.61 148.008 402.376 125.727 440.358C119.895 450.284 113.166 459.822 107.573 469.855Z"/></g></svg>